<?xml version="1.0" encoding="iso-8859-1"?>
<!-- Generator: Adobe Illustrator 19.0.0, SVG Export Plug-In . SVG Version: 6.00 Build 0)  -->
<svg version="1.1" id="Layer_1" xmlns="http://www.w3.org/2000/svg" xmlns:xlink="http://www.w3.org/1999/xlink" x="0px" y="0px"
	 viewBox="0 0 503.467 503.467" style="enable-background:new 0 0 503.467 503.467;" xml:space="preserve">
<g transform="translate(1 1)">
	<polygon style="fill:#F2EDDA;" points="293.4,105.453 293.4,139.587 250.733,139.587 208.067,139.587 208.067,105.453 	"/>
	<path style="fill:#FF7474;" d="M276.333,45.72c0,14.507-11.093,25.6-25.6,25.6c-14.507,0-25.6-11.093-25.6-25.6
		s25.6-42.667,25.6-42.667S276.333,31.213,276.333,45.72"/>
	<path style="fill:#FFE079;" d="M423.107,147.267c4.267,4.267,6.827,11.093,6.827,17.92c0,23.893-19.627,42.667-42.667,42.667
		c-17.067,0-34.133-34.133-68.267-34.133s-51.2,34.133-68.267,34.133S216.6,173.72,182.467,173.72s-51.2,34.133-68.267,34.133
		c-2.56,0-5.973,0-8.533-0.853c-7.68-1.707-15.36-5.973-21.333-11.947c-7.68-7.68-12.8-17.92-12.8-29.867
		c0-14.507,11.093-25.6,25.6-25.6h110.933h42.667H293.4h110.933C412.013,139.587,417.987,142.147,423.107,147.267z M491.373,317.933
		c4.267,4.267,6.827,11.093,6.827,17.92c0,23.893-19.627,42.667-42.667,42.667c-17.067,0-34.133-34.133-68.267-34.133
		S336.067,378.52,319,378.52c-17.067,0-34.133-34.133-68.267-34.133s-51.2,34.133-68.267,34.133s-34.133-34.133-68.267-34.133
		S63,378.52,45.933,378.52c-2.56,0-5.973,0-8.533-0.853c-7.68-1.707-15.36-5.973-21.333-11.947c-7.68-7.68-12.8-17.92-12.8-29.867
		c0-14.507,11.093-25.6,25.6-25.6h76.8H395.8h76.8C480.28,310.253,486.253,312.813,491.373,317.933z"/>
	<path style="fill:#F2EDDA;" d="M45.933,378.52c17.067,0,34.133-34.133,68.267-34.133s51.2,34.133,68.267,34.133
		s34.133-34.133,68.267-34.133s51.2,34.133,68.267,34.133c17.067,0,34.133-34.133,68.267-34.133s51.2,34.133,68.267,34.133h8.533
		v119.467H37.4V378.52v-0.853C39.96,378.52,43.373,378.52,45.933,378.52"/>
	<path style="fill:#AE938D;" d="M105.667,207.853V207c2.56,0.853,5.973,0.853,8.533,0.853c17.067,0,34.133-34.133,68.267-34.133
		s51.2,34.133,68.267,34.133S284.867,173.72,319,173.72s51.2,34.133,68.267,34.133h8.533v102.4H105.667V207.853z"/>
</g>
<path style="fill:#51565F;" d="M499.2,503.253H4.267c-2.56,0-4.267-1.707-4.267-4.267c0-2.56,1.707-4.267,4.267-4.267H499.2
	c2.56,0,4.267,1.707,4.267,4.267C503.467,501.547,501.76,503.253,499.2,503.253z M465.067,469.12c-2.56,0-4.267-1.707-4.267-4.267
	v-81.067c-1.707,0-2.56,0-4.267,0c-8.533,0-16.213-5.973-24.747-13.653c-11.947-9.387-24.747-20.48-43.52-20.48
	s-31.573,11.093-43.52,20.48c-8.533,7.68-16.213,13.653-24.747,13.653c-8.533,0-16.213-5.973-24.747-13.653
	c-11.947-9.387-24.747-20.48-43.52-20.48s-31.573,11.093-43.52,20.48c-8.533,7.68-16.213,13.653-24.747,13.653
	c-8.533,0-16.213-5.973-24.747-13.653c-11.947-9.387-24.747-20.48-43.52-20.48s-31.573,11.093-43.52,20.48
	c-8.533,7.68-16.213,13.653-24.747,13.653c-1.707,0-2.56,0-4.267,0v81.067c0,2.56-1.707,4.267-4.267,4.267s-4.267-1.707-4.267-4.267
	V382.08C14.507,376.106,0,358.187,0,336.853c0-17.067,12.8-29.867,29.867-29.867H473.6c17.067,0,29.867,12.8,29.867,29.867
	c0,21.333-14.507,39.253-34.133,45.227v82.773C469.333,467.413,467.627,469.12,465.067,469.12z M388.267,341.12
	c21.333,0,36.693,12.8,48.64,22.187c7.68,5.973,14.507,11.947,19.627,11.947c20.48,0,38.4-17.92,38.4-38.4
	c0-11.947-9.387-21.333-21.333-21.333H29.867c-11.947,0-21.333,9.387-21.333,21.333c0,20.48,17.92,38.4,38.4,38.4
	c5.12,0,11.947-5.12,19.627-11.947c11.947-10.24,27.307-22.187,48.64-22.187s36.693,12.8,48.64,22.187
	c7.68,5.973,14.507,11.947,19.627,11.947s11.947-5.12,19.627-11.947c11.947-10.24,27.307-22.187,48.64-22.187
	s36.693,12.8,48.64,22.187c7.68,5.973,14.507,11.947,19.627,11.947c5.12,0,11.947-5.12,19.627-11.947
	C351.573,353.92,366.933,341.12,388.267,341.12z M396.8,281.387c-2.56,0-4.267-1.707-4.267-4.267v-64c-1.707,0-2.56,0-4.267,0
	c-8.533,0-16.213-5.973-24.747-13.653c-11.947-9.387-24.747-20.48-43.52-20.48s-31.573,11.093-43.52,20.48
	c-8.533,7.68-16.213,13.653-24.747,13.653s-16.213-5.973-24.747-13.653c-11.947-9.387-24.747-20.48-43.52-20.48
	s-31.573,11.093-43.52,20.48c-8.533,7.68-16.213,13.653-24.747,13.653c-1.707,0-2.56,0-4.267,0v64c0,2.56-1.707,4.267-4.267,4.267
	s-4.267-1.707-4.267-4.267v-65.707c-19.627-5.973-34.133-23.893-34.133-45.227c0-17.067,12.8-29.867,29.867-29.867h307.2
	c17.067,0,29.867,12.8,29.867,29.867c0,21.333-14.507,39.253-34.133,45.227v65.707C401.067,279.68,399.36,281.387,396.8,281.387z
	 M320,170.453c21.333,0,36.693,12.8,48.64,22.187c7.68,5.973,14.507,11.947,19.627,11.947c20.48,0,38.4-17.92,38.4-38.4
	c0-11.947-9.387-21.333-21.333-21.333h-307.2c-11.947,0-21.333,9.387-21.333,21.333c0,20.48,17.92,38.4,38.4,38.4
	c5.12,0,11.947-5.12,19.627-11.947c11.947-10.24,27.307-22.187,48.64-22.187s36.693,12.8,48.64,22.187
	c7.68,5.973,14.507,11.947,19.627,11.947s11.947-5.12,19.627-11.947C283.307,183.253,298.667,170.453,320,170.453z M294.4,110.72
	h-85.333c-2.56,0-4.267-1.707-4.267-4.267c0-2.56,1.707-4.267,4.267-4.267H294.4c2.56,0,4.267,1.707,4.267,4.267
	C298.667,109.013,296.96,110.72,294.4,110.72z M251.733,76.587c-16.213,0-29.867-13.653-29.867-29.867
	c0-15.36,23.893-42.667,26.453-45.227c1.707-1.707,5.12-1.707,5.973,0c2.56,3.413,26.453,29.867,26.453,45.227
	C281.6,62.933,267.947,76.587,251.733,76.587z M251.733,10.88C242.347,21.973,230.4,39.04,230.4,46.72
	c0,11.947,9.387,21.333,21.333,21.333c11.947,0,21.333-9.387,21.333-21.333C273.067,38.187,261.12,21.973,251.733,10.88z"/>
<g>
</g>
<g>
</g>
<g>
</g>
<g>
</g>
<g>
</g>
<g>
</g>
<g>
</g>
<g>
</g>
<g>
</g>
<g>
</g>
<g>
</g>
<g>
</g>
<g>
</g>
<g>
</g>
<g>
</g>
</svg>
