<?xml version="1.0" encoding="UTF-8"?>
<svg width="560px" height="132px" viewBox="0 0 560 132" version="1.1" xmlns="http://www.w3.org/2000/svg" xmlns:xlink="http://www.w3.org/1999/xlink">
    <!-- Generator: Sketch 53.2 (72643) - https://sketchapp.com -->
    <title>ems</title>
    <desc>Created with Sketch.</desc>
    <g id="Page-1" stroke="none" stroke-width="1" fill="none" fill-rule="evenodd">
        <g id="ems" fill="#38C7BF" fill-rule="nonzero">
            <path d="M120.06,115.787 C127.78,114.997 135.93,114.747 143.49,115.987 C143.47,120.627 142.76,125.357 141.03,129.676 C140.13,132.386 136.61,131.966 134.84,130.416 C129.29,126.237 124.66,120.966 120.06,115.787 M95.83,92.907 C113.68,91.337 131.75,92.447 149.69,92.226 C149.25,97.726 148.23,103.336 145.75,108.306 C135.35,108.916 124.78,108.737 114.32,108.706 C110.25,109.006 107.86,105.396 105.43,102.776 C102.48,99.237 98.43,96.766 95.83,92.907 M72.03,69.676 C99.74,68.487 127.56,69.346 155.31,69.216 C154.35,74.656 154.49,80.966 151.02,85.487 C132.15,86.037 113.21,85.237 94.32,85.777 C83.84,87.016 78.36,76.077 72.03,69.676 M459.11,62.676 C459.02,56.926 458.05,45.956 466.27,46.146 C493.709,46.136 521.15,46.146 548.589,46.146 C547.629,51.696 546.249,57.156 544.909,62.616 C516.31,62.707 487.709,62.606 459.11,62.676 M47.68,46.477 C76.53,45.657 105.45,46.397 134.32,46.147 C143.35,46.417 152.45,45.477 161.43,46.737 C160.16,51.817 159.4,57.107 157.27,61.917 C154.16,63.257 150.63,62.167 147.35,62.337 C119.45,62.317 91.54,62.127 63.64,62.657 C57.9,57.707 52.56,52.236 47.68,46.477 M466.91,23.566 C495.971,22.606 525.11,23.396 554.2,23.146 C552.93,28.686 551.62,34.206 550.24,39.716 C521.61,39.636 492.96,39.916 464.33,39.556 C464.54,34.196 464.47,28.466 466.91,23.566 M23.51,23.276 C71.02,23.136 118.57,22.846 166.08,23.436 C165.06,28.986 166.46,40.006 158.27,39.536 C120.97,39.846 83.65,39.786 46.35,39.576 C43.12,39.546 39.05,40.506 36.7,37.636 C32.53,32.646 27.72,28.236 23.51,23.276 M472.72,0.466 C501.55,0.086 530.49,0.526 559.36,0.306 C558.45,5.796 557.06,11.196 555.83,16.636 C526.69,16.296 497.45,17.516 468.38,16.016 C469.7,10.946 469.36,4.426 472.72,0.466 M0,0.907 C6.38,-0.233 12.87,0.217 19.31,0.347 C65.64,0.317 111.98,0.377 158.32,0.317 C162.76,0.437 167.41,-0.613 171.7,0.937 C172,6.247 170.74,11.847 168,16.427 C119.47,17.057 70.88,16.397 22.32,16.757 C19.34,16.677 15.85,17.077 13.57,14.717 C8.81,10.367 3.75,6.216 0,0.907" id="Shape"></path>
            <path d="M396.629,0.207 C409.51,0.017 422.47,-0.183 435.359,0.307 C438.838,7.977 444.779,14.287 447.999,22.047 C447.539,28.057 444.859,33.747 443.8,39.707 C432.629,39.727 421.459,39.817 410.3,39.677 C410.539,38.007 410.81,36.337 411.11,34.677 C408.87,34.737 406.64,34.797 404.41,34.877 C403.37,38.937 402.38,43.017 401.431,47.107 C408.401,48.217 418.691,43.597 422.511,51.697 C426.271,58.717 431.96,64.667 435.051,71.997 C433.71,83.527 429.571,94.697 427.53,106.177 C426.78,109.608 425.99,113.398 422.91,115.547 C416.301,120.487 411.27,127.337 404.09,131.527 C390.41,131.976 376.66,131.737 362.96,131.596 C359.53,125.976 354.82,121.176 352.12,115.117 C369.2,114.846 386.301,115.087 403.391,115.007 C407.741,115.217 410.571,111.347 413.79,109.047 C393.061,108.287 372.301,109.127 351.561,108.627 C352.92,103.148 354.121,97.637 355.691,92.207 C367.141,91.907 378.601,92.247 390.051,91.987 C389.63,94.346 389.301,96.737 389.03,99.127 C391.08,99.097 393.14,99.077 395.2,99.077 C395.75,96.777 396.29,94.467 396.81,92.157 C404.37,91.886 411.95,92.117 419.52,92.136 C419.98,90.067 420.41,87.987 420.83,85.897 C406.391,85.457 391.891,86.247 377.5,85.586 C371.471,81.186 367.271,74.647 362.28,69.126 C382.39,68.866 402.5,69.206 422.61,69.006 C420.9,66.636 420.11,62.226 416.38,62.766 C398.42,62.646 380.45,62.776 362.49,62.746 C363.77,57.176 365.52,51.726 366.761,46.146 C374.5,46.106 382.24,46.286 389.96,45.806 C390.351,43.766 390.761,41.736 391.221,39.716 C383.641,39.736 376.071,39.646 368.491,39.716 C369.911,34.186 371.281,28.636 372.751,23.116 C393.731,22.966 414.711,23.126 435.691,22.956 C434.031,20.566 433.151,16.136 429.411,16.706 C411.851,16.666 394.271,16.996 376.711,16.576 C383,10.747 389.43,4.867 396.629,0.207 M277.49,70.386 C275.24,73.886 281.35,71.237 277.49,70.386 M322.73,63.077 C322.169,65.067 321.6,67.056 321.04,69.047 C327.54,69.057 334.051,69.047 340.561,69.037 C340.96,66.976 341.321,64.897 341.681,62.827 C335.36,62.747 329.03,62.407 322.73,63.077 M279.2,62.827 C278.85,64.897 278.48,66.957 278.13,69.027 C288.56,69.176 298.99,68.886 309.41,69.247 C310.44,67.107 311.46,64.967 312.48,62.817 C301.39,62.617 290.29,62.716 279.2,62.827 M262.46,0.196 C274.98,0.026 287.51,0.026 300.04,0.106 C302.23,15.266 301.561,30.776 303.32,46.046 C317.58,46.096 331.85,46.366 346.1,45.926 C346.56,43.856 347.03,41.786 347.52,39.716 C333.749,39.696 319.97,39.786 306.2,39.766 C308.92,34.326 311.43,28.776 313.761,23.146 C326.54,22.796 339.34,23.426 352.111,22.776 C352.451,20.746 352.791,18.706 353.161,16.676 C341.161,16.756 329.151,16.946 317.151,16.526 C318.801,10.846 321.781,5.676 323.741,0.116 C338.651,0.086 353.552,0.016 368.461,0.106 C362.812,26.536 355.401,52.576 349.211,78.886 C344.371,96.357 341.062,114.197 336.062,131.626 C324.782,131.886 313.492,131.706 302.202,131.647 C303.852,126.197 305.342,120.697 306.632,115.147 C314.042,114.686 321.553,115.657 328.893,114.556 C329.622,112.737 330.103,110.836 330.643,108.966 C323.243,108.626 315.832,108.866 308.422,108.706 C309.992,103.216 311.242,97.646 312.612,92.106 C319.782,92.095 326.952,92.116 334.122,92.066 C334.662,89.986 335.242,87.916 335.812,85.836 C328.711,85.857 321.602,85.726 314.501,85.796 C314.711,84.416 314.911,83.036 315.091,81.666 C306.961,97.836 300.852,115.036 292.352,130.976 C286.762,132.817 280.242,131.317 274.302,131.666 C275.522,126.266 275.572,120.726 275.592,115.216 C280.092,115.046 284.592,115.046 289.092,114.786 C289.653,112.826 290.212,110.876 290.712,108.906 C285.983,108.805 281.262,108.786 276.532,108.646 C276.332,103.146 276.342,97.635 276.512,92.135 C284.032,91.885 291.553,92.156 299.082,92.045 C299.862,89.985 300.652,87.935 301.442,85.875 C293.462,85.705 285.482,86.055 277.512,85.665 C277.532,81.975 277.412,78.275 277.102,74.595 C271.642,93.406 267.822,112.675 262.982,131.675 C252.042,131.825 241.102,131.696 230.162,131.755 C230.992,126.135 232.632,120.675 233.752,115.115 C241.012,114.915 248.262,115.045 255.522,115.054 C255.932,113.025 256.292,110.994 256.632,108.954 C249.592,108.724 242.542,108.784 235.502,108.624 C236.932,103.104 238.412,97.604 239.792,92.074 C246.992,92.084 254.192,92.053 261.392,92.034 C261.812,90.004 262.262,87.984 262.692,85.954 C255.542,85.814 248.382,85.914 241.232,85.694 C242.422,80.324 243.402,74.854 245.352,69.714 C252.482,68.014 259.932,69.884 267.172,68.764 C267.512,66.764 267.842,64.764 268.202,62.764 C261.202,62.674 254.212,62.794 247.222,62.614 C247.972,57.004 249.712,51.594 250.752,46.044 C264.652,46.154 278.542,46.194 292.442,46.104 C292.442,43.974 292.462,41.854 292.502,39.724 C279.132,39.584 265.752,39.944 252.382,39.564 C253.762,34.094 255.062,28.614 256.542,23.174 C268.242,22.964 279.932,23.054 291.631,23.024 C291.602,20.924 291.581,18.824 291.562,16.734 C280.452,16.714 269.332,16.884 258.212,16.584 C259.25,11.037 260.7,5.566 262.46,0.196 M188.08,0.367 C209.47,-0.183 230.9,0.037 252.3,0.227 C249.05,12.687 246.5,25.317 243.04,37.707 C233.52,37.777 224,37.967 214.48,37.757 C213.92,40.527 213.28,43.297 212.8,46.087 C221.34,46.157 229.87,45.977 238.41,46.087 C235.95,59.457 232.29,72.597 229.08,85.797 C220.24,85.818 211.41,85.777 202.57,85.917 C201.95,89.317 201.15,92.667 200.42,96.037 C209.73,96.257 219.06,95.757 228.37,96.177 C225.99,107.887 223.8,119.698 220.42,131.157 C199.14,132.516 177.55,131.447 156.16,131.636 C157.33,126.096 158.82,120.626 159.85,115.046 C177.66,114.996 195.47,114.916 213.28,115.096 C213.76,112.976 214.26,110.876 214.74,108.766 C197.01,108.796 179.27,108.737 161.53,108.777 C162.69,103.167 164.3,97.667 165.71,92.117 C173.82,91.967 181.93,92.207 190.05,92.016 C190.47,89.907 190.95,87.796 191.44,85.697 C183.41,85.917 175.37,85.926 167.34,85.726 C168.61,80.166 169.97,74.617 171.61,69.157 C188.44,68.777 205.28,69.417 222.09,68.837 C222.44,66.847 222.78,64.847 223.16,62.857 C206.55,62.477 189.93,62.957 173.33,62.597 C174,57.017 175.66,51.617 176.85,46.137 C185.14,45.967 193.43,46.317 201.72,46.007 C201.93,43.957 202.18,41.917 202.42,39.877 C194.45,39.637 186.49,39.777 178.52,39.677 C179.91,34.147 181.32,28.617 182.63,23.077 C200.43,22.897 218.23,23.207 236.03,22.967 C236.43,20.897 236.83,18.827 237.26,16.767 C219.6,16.707 201.93,16.997 184.28,16.537 C185.24,11.077 186.76,5.747 188.08,0.367" id="Shape"></path>
        </g>
    </g>
</svg>