<?xml version="1.0" encoding="UTF-8"?>
<svg width="965px" height="220px" viewBox="0 0 965 220" version="1.1" xmlns="http://www.w3.org/2000/svg" xmlns:xlink="http://www.w3.org/1999/xlink">
    <!-- Generator: Sketch 53.2 (72643) - https://sketchapp.com -->
    <title>icon-boxberry</title>
    <desc>Created with Sketch.</desc>
    <g id="Page-1" stroke="none" stroke-width="1" fill="none" fill-rule="evenodd">
        <g id="icon-boxberry" fill="#38C7BF" fill-rule="nonzero">
            <g id="Group">
                <path d="M103.283,1.284 C87.689,5.829 79.852,26.602 90.381,39.57 C100.83,55.47 128.478,51.284 133.435,32.759 C140.402,15.143 121.174,-4.788 103.283,1.284 Z" id="Path"></path>
                <path d="M86.592,117.068 C90.06,129.779 104.898,137.738 117.401,133.451 C129.973,130.003 138.069,115.2 133.592,102.813 C129.836,90.396 115.479,82.677 103.043,86.723 C90.725,90.327 82.371,104.649 86.592,117.068 Z" id="Path"></path>
                <path d="M152.338,92.299 C165.685,92.727 177.931,80.464 176.937,66.997 C177.314,52.247 161.843,39.999 147.572,43.601 C135.768,46.122 126.404,58.284 128.461,70.48 C129.42,82.436 140.4,92.299 152.338,92.299 Z" id="Path"></path>
                <path d="M188.738,86.621 C177.932,89.469 169.77,100.378 170.795,111.647 C171.121,124.204 182.58,134.907 195.084,134.598 C208.894,135.009 221.191,121.939 219.562,108.131 C218.842,93.378 202.84,82.333 188.738,86.621 Z" id="Path"></path>
                <path d="M89.766,78.404 C99.184,60.962 80.967,38.129 61.889,43.756 C45.869,47.084 38.029,67.787 47.209,81.099 C56.575,96.861 82.422,95.145 89.766,78.404 Z" id="Path"></path>
                <path d="M49.472,108.132 C48.886,93.552 32.783,82.435 18.906,86.621 C7.275,89.313 -0.973,101.595 0.876,113.397 C2.196,126.537 15.798,136.554 28.749,134.358 C41.187,132.85 50.964,120.62 49.472,108.132 Z" id="Path"></path>
                <path d="M145.805,129.229 C133.832,132.592 125.461,146.28 129.097,158.424 C131.467,169.607 142.529,177.995 153.951,177.19 C167.83,176.983 179.047,162.868 176.746,149.299 C175.155,135.043 159.563,124.702 145.805,129.229 Z" id="Path"></path>
                <path d="M101.361,172.421 C82.695,178.477 80.074,206.776 97.383,216.111 C114.518,228.015 139.994,209.763 134.125,189.763 C131.259,175.612 114.674,166.966 101.361,172.421 Z" id="Path"></path>
                <path d="M91.618,147.823 C88.959,134.048 73.555,124.682 60.141,129.419 C49.697,132.626 42.439,143.673 43.436,154.529 C44.003,167.035 55.561,177.961 68.204,177.223 C82.819,177.31 95.032,162.079 91.618,147.823 Z" id="Path"></path>
            </g>
            <g id="Group" transform="translate(260.000000, 36.000000)">
                <path d="M137.021,37.54 C111.864,44.215 97.782,73.537 106.54,97.71 C114.453,122.359 144.28,135.061 168.161,126.595 C193.247,119.484 208.247,88.95 197.528,64.928 C188.822,41.194 160.319,30.403 137.021,37.54 Z M170.94,110.121 C156.204,120.787 132.719,115.924 124.202,99.594 C113.675,82.079 122.364,56.508 141.909,49.927 C151.804,47.65 163.246,48.063 171.571,54.572 C189.328,67.275 188.892,97.758 170.94,110.121 Z" id="Shape"></path>
                <path d="M73.662,43.703 C56.385,30.159 30.985,34.341 15.916,49.196 C15.166,35.434 16.932,21.568 14.972,7.901 C14.005,1.079 6.118,1.036 0.843,0.381 C-0.534,20.527 0.551,40.731 0.19,60.907 C0.359,77.282 -1.625,95.185 7.737,109.655 C21.989,132.296 57.625,135.759 76.612,117.297 C97.252,98.38 95.849,60.882 73.662,43.703 Z M38.442,115.343 C8.66,108.979 7.203,59.432 35.388,49.902 C55.057,43.345 75.838,60.162 75.285,80.385 C77.85,100.391 58.738,120.183 38.442,115.343 Z" id="Shape"></path>
                <path d="M685.42,41.602 C676.275,62.456 669.839,84.449 661.108,105.447 C648.503,87.207 644.095,61.345 632.9,40.976 C629.487,34.157 620.85,37.005 614.776,36.425 C625.327,64.224 637.857,91.272 649.642,118.554 C655.568,128.548 647.967,139.893 641.437,147.493 C633.889,151.87 623.415,152.548 620.125,162.032 C635,167.474 653.006,161.181 659.411,146.285 C674.702,109.725 689.239,72.859 704.65,36.349 C698.244,37.029 688.613,34.079 685.42,41.602 Z" id="Path"></path>
                <path d="M509.565,56.458 C508.934,50.29 508.281,44.097 507.527,37.951 C502.98,37.277 498.429,36.645 493.909,36.066 C493.617,66.016 493.013,96.039 494.222,125.963 C499.11,125.963 504.021,125.963 508.929,125.963 C511.521,105.69 505.205,83.652 515.029,64.759 C520.158,54.259 531.744,49.977 542.658,48.718 C542.515,43.927 542.369,39.16 542.177,34.372 C527.274,33.835 516.876,44.846 509.565,56.458 Z" id="Path"></path>
                <path d="M242.723,70.08 C231.545,55.853 225.088,29.797 201.522,36.476 C210.908,51.28 222.593,64.758 230.484,80.43 C223.635,97.56 210.672,111.831 201.453,127.898 C225.522,134.501 231.379,107.112 242.724,92.745 C254.795,106.608 259.78,134.503 284.022,127.97 C275.412,111.594 261.861,97.633 255.134,80.48 C263.336,64.953 274.705,51.307 284.115,36.477 C260.117,29.46 254.648,56.292 242.723,70.08 Z" id="Path"></path>
                <path d="M572.686,56.483 C573.072,46.298 570.29,33.162 556.955,36.04 C556.693,66.036 556.351,96.061 557.151,126.06 C562.014,126.06 566.902,126.06 571.815,126.06 C574.158,105.739 567.796,83.604 577.886,64.784 C583.063,54.549 594.259,49.563 605.389,50.122 C605.442,44.849 605.419,39.599 605.295,34.325 C590.319,33.815 579.916,44.748 572.686,56.483 Z" id="Path"></path>
                <path d="M363.729,41.365 C346.072,30.304 323.645,35.871 308.888,49.103 C308.457,35.338 310.098,21.451 308.234,7.784 C307.945,0.428 299.044,1.54 293.936,0.475 C292.851,22.225 293.765,43.998 293.431,65.775 C293.406,80.434 292.657,96.305 300.977,109.173 C313.75,130.805 345.999,135.351 365.767,120.981 C391.914,103.127 390.729,57.863 363.729,41.365 Z M333.079,115.585 C302.839,110.578 300.368,60.037 328.215,49.976 C348.735,42.935 370.868,61.44 368.764,82.707 C370.507,101.725 351.998,119.287 333.079,115.585 Z" id="Shape"></path>
                <path d="M479.494,82.344 C479.47,68.87 477.655,54.062 467.523,44.192 C451.84,29.024 424.627,31.565 409.408,46.152 C390.2,65.361 391.073,101.19 413.037,118.026 C431.788,133.146 459.415,130.17 477.755,115.897 C472.116,99.617 457.096,115.533 445.987,114.856 C427.726,116.358 412.243,100.996 411.804,83.019 C434.35,82.15 456.948,83.336 479.494,82.344 Z M451.455,48.307 C459.629,52.806 462.896,62.168 463.163,71.02 C446.544,71.505 429.9,71.144 413.278,71.144 C413.083,52.104 435.005,40.468 451.455,48.307 Z" id="Shape"></path>
            </g>
        </g>
    </g>
</svg>